Coordinates
version=1
nRows=12
nColumns=34
inDegrees=yes

Units are S.I. units (second, meters, Newtons, ...)
If the header above contains a line with 'inDegrees', this indicates whether rotational values are in degrees (yes) or radians (no).

endheader
time	pelvis_tilt	pelvis_list	pelvis_rotation	pelvis_tx	pelvis_ty	pelvis_tz	hip_flexion_r	hip_adduction_r	hip_rotation_r	knee_angle_r	ankle_angle_r	subtalar_angle_r	mtp_angle_r	hip_flexion_l	hip_adduction_l	hip_rotation_l	knee_angle_l	ankle_angle_l	subtalar_angle_l	mtp_angle_l	lumbar_extension	lumbar_bending	lumbar_rotation	arm_flex_r	arm_add_r	arm_rot_r	elbow_flex_r	pro_sup_r	arm_flex_l	arm_add_l	arm_rot_l	elbow_flex_l	pro_sup_l
      0.00000000	      0.84270457	     -0.89693365	     11.98848237	      0.11222569	      1.00678665	     -0.12315089	     -0.42706883	     -5.25375185	     -5.74913478	     10.02220294	      3.89494082	    -17.16054166	      0.00000000	     -2.69574775	      1.25446458	      1.20764915	      4.18650893	      5.48879501	    -10.00321982	      0.00000000	     -0.87744843	      0.08207018	      5.34301694	     36.29088232	      7.39514485	     58.74656965	    118.37195843	    112.65731297	     26.72691689	      5.44506961	     50.60071801	    114.85043584	    104.97010128
      0.01666670	      1.01633597	     -0.92004407	     12.01160582	      0.11081331	      1.00407445	     -0.12249939	     -0.37705701	     -4.96990515	     -5.76398104	     10.03904154	      4.73888692	    -15.21796622	      0.00000000	     -3.15801254	      1.40973726	      0.83597683	      3.69071993	      5.81054789	    -10.23447088	      0.00000000	     -1.32890617	     -0.03943857	      6.03681148	     38.36077300	      6.82759224	     61.51861214	    120.53271047	    112.29595932	     27.07389321	      5.25137602	     51.95227245	    116.03164671	    104.62481216
      0.03333330	      0.44477535	     -0.72500957	     11.64682364	      0.10941890	      1.00637530	     -0.12364930	      0.31871105	     -5.40025841	     -6.03810104	      9.70133428	      5.19198941	    -15.15753047	      0.00000000	     -2.54484460	      2.01630874	      0.48009045	      3.76382532	      6.70369040	     -9.66970959	      0.00000000	     -1.47520323	     -0.54136082	      6.78523536	     38.47365596	      6.63805087	     63.44187061	    121.72430672	    112.23791016	     26.72639007	      5.17220001	     52.39097131	    117.76056645	    104.05492315
      0.05000000	      0.64022362	     -0.64318562	     11.20127168	      0.11038918	      1.00555097	     -0.12404984	      0.35366673	     -5.66659504	     -5.93855045	      9.92581732	      5.52874169	    -14.85266571	      0.00000000	     -3.16090935	      2.26111011	      0.06618663	      3.11794409	      6.92815162	     -8.75040666	      0.00000000	     -2.01261145	     -0.53854472	      7.05190062	     38.69057275	      6.63636358	     65.02246481	    121.59573390	    112.03893644	     26.86830238	      5.23149469	     53.33864392	    117.47931973	    102.79448294
      0.06666670	      0.52963713	     -0.60836670	     10.88352649	      0.10920007	      1.00547232	     -0.12500410	      0.54857337	     -5.83880455	     -5.91626283	      9.96144614	      5.37726377	    -14.98775974	      0.00000000	     -3.25881180	      2.44246602	     -0.42848571	      2.73974819	      7.97184354	     -6.48453937	      0.00000000	     -2.09219334	     -0.29104493	      7.30071536	     38.53977041	      6.63166234	     65.92747962	    121.38707232	    109.14852374	     26.79451390	      5.22371856	     54.32715372	    118.01180570	     92.00251216
      0.08333330	      0.55152512	     -0.60131382	     10.62018198	      0.10807907	      1.00452450	     -0.12453442	      0.62068797	     -5.88022445	     -5.95198182	      9.93552838	      5.41975830	    -15.01835841	      0.00000000	     -3.26111777	      2.49516939	     -0.35121331	      2.67950740	      8.00400824	     -6.49480293	      0.00000000	     -2.12107863	     -0.24010548	      7.25002684	     38.50244541	      6.61018438	     65.93750888	    121.39679144	    109.14241697	     26.79120587	      5.30368182	     54.37467408	    118.05649309	     91.99007521
      0.10000000	      0.31988649	     -0.55083913	     10.19970390	      0.10772301	      1.00637771	     -0.12562187	      1.16466861	     -6.06825337	     -5.67431538	     10.34578376	      5.57326053	    -14.97338604	      0.00000000	     -3.17373002	      2.66285859	     -0.12565468	      2.33416901	      7.69637363	     -7.26180454	      0.00000000	     -2.16074288	     -0.23862525	      7.56808593	     38.27329673	      6.44117799	     66.28284935	    121.65271974	    108.82880632	     26.78382390	      5.32782075	     55.07460356	    119.08403365	     91.34484319
      0.11666670	      0.37986208	     -0.52711242	      9.98652354	      0.10609668	      1.00481591	     -0.12438627	      1.22260672	     -6.09583265	     -5.71365727	     10.33604983	      5.56508382	    -14.99021316	      0.00000000	     -3.17662286	      2.68227084	     -0.06728540	      2.34844740	      7.70347925	     -7.25660095	      0.00000000	     -2.16531714	     -0.20676368	      7.50077923	     38.25571883	      6.42078412	     66.27292301	    121.65257303	    108.81868442	     26.77838579	      5.38175748	     55.11650907	    119.11080196	     91.32708981
      0.13333330	      0.37305035	     -0.47600190	      9.60367476	      0.10562107	      1.00100031	     -0.12424304	      1.60943703	     -6.20741785	     -5.51311051	     10.84564866	      5.62278546	    -15.15848610	      0.00000000	     -3.08908926	      2.76604889	      0.03155637	      2.40117487	      8.03092951	     -7.66416171	      0.00000000	     -2.39828304	     -0.22220440	      7.46184472	     38.49957974	      6.66561337	     65.92067226	    121.77686716	    108.62082870	     26.90636944	      5.33350284	     55.33918962	    119.85457858	     90.99838962
      0.15000000	      0.39960623	     -0.50369573	      9.42341888	      0.10660480	      1.00528402	     -0.12626603	      1.66080119	     -6.21977776	     -5.53120167	     10.83207798	      5.60728645	    -15.17050934	      0.00000000	     -3.08552592	      2.74418524	      0.08266148	      2.40515073	      8.00491636	     -7.65092258	      0.00000000	     -2.41186636	     -0.24541614	      7.41088670	     38.48505303	      6.61700734	     65.91219538	    121.76227479	    108.60758591	     26.87996952	      5.34742454	     55.38800222	    119.90560736	     90.97634812
      0.16666670	      0.38647544	     -0.52665926	      9.23857251	      0.10530696	      1.00880681	     -0.12627268	      1.76042803	     -6.21833926	     -5.47699039	     10.75046967	      5.56361834	    -15.13446753	      0.00000000	     -3.05118466	      2.74376836	      0.15570420	      2.35653670	      7.98491787	     -7.63864694	      0.00000000	     -2.52563028	     -0.24970610	      7.33438843	     38.42600411	      6.53593384	     65.90766771	    121.74186581	    108.58872752	     26.82366272	      5.32718714	     55.47670696	    119.95982121	     90.94553857
      0.18333330	      0.41806779	     -0.56515184	      9.05584745	      0.10563596	      1.00091729	     -0.12713379	      1.76411184	     -6.22205079	     -5.42718407	     10.78825310	      5.51060680	    -15.11678299	      0.00000000	     -3.07125468	      2.75121704	      0.21761901	      2.32072412	      8.01629318	     -7.66142500	      0.00000000	     -2.49098055	     -0.18178167	      7.25352537	     38.43747976	      6.53756684	     65.87335388	    121.78727129	    108.56256873	     26.86849490	      5.36385837	     55.55123326	    120.05666178	     90.90435239
